<svg width="72" height="20" viewBox="0 0 72 20" fill="none" xmlns="http://www.w3.org/2000/svg">
<path fill-rule="evenodd" clip-rule="evenodd" d="M24.0387 4.67893H26.6822L26.9156 6.60204H26.996C27.7922 5.13283 28.9877 4.41284 30.1027 4.41284C30.7279 4.41284 31.0909 4.49365 31.4072 4.63454L30.8676 7.44856C30.4786 7.35193 30.157 7.27112 29.6877 7.27112C28.863 7.27112 27.8622 7.80583 27.2788 9.30601V15.6826H24.0387V4.67893Z" fill="white"/>
<path fill-rule="evenodd" clip-rule="evenodd" d="M39.0101 8.97879C39.0101 7.76889 38.4866 6.89778 37.1929 6.89778C36.1691 6.89778 35.2853 7.58866 35.0648 8.97879H39.0101ZM31.9622 10.1846C31.9622 6.61508 34.4934 4.41272 37.1203 4.41272C40.235 4.41272 41.7781 6.69097 41.7781 9.69426C41.7781 10.2815 41.7053 10.8688 41.6432 11.1349H35.1011C35.3917 12.731 36.4781 13.4636 37.9374 13.4636C38.7646 13.4636 39.5086 13.2107 40.3021 12.7437L41.3736 14.7092C40.2531 15.4894 38.7903 15.9486 37.4938 15.9486C34.3766 15.9486 31.9622 13.8273 31.9622 10.1846Z" fill="white"/>
<path fill-rule="evenodd" clip-rule="evenodd" d="M44.0056 12.2632V0.144409H47.2458V12.3963C47.2458 13.0958 47.5674 13.3176 47.8319 13.3176C47.9563 13.3176 48.0445 13.3176 48.2287 13.2732L48.615 15.6773C48.2573 15.8313 47.7254 15.9487 46.9887 15.9487C44.7655 15.9487 44.0056 14.4896 44.0056 12.2632Z" fill="white"/>
<path fill-rule="evenodd" clip-rule="evenodd" d="M55.9659 12.4857V10.5635C53.6617 10.8766 52.9101 11.5391 52.9101 12.371C52.9101 13.0803 53.3946 13.4271 54.1646 13.4271C54.8982 13.4271 55.3906 13.062 55.9659 12.4857ZM49.8074 12.6308C49.8074 10.3123 51.6407 9.0572 55.9659 8.59798C55.901 7.63557 55.4238 7.00742 54.2366 7.00742C53.3189 7.00742 52.4037 7.39593 51.343 8.00147L50.1911 5.86092C51.5789 5.00749 53.1426 4.41284 54.8619 4.41284C57.6576 4.41284 59.206 6.02002 59.206 9.39187V15.6826H56.5625L56.329 14.5554H56.2487C55.3282 15.3695 54.2961 15.9487 53.0672 15.9487C51.0728 15.9487 49.8074 14.4845 49.8074 12.6308Z" fill="white"/>
<path fill-rule="evenodd" clip-rule="evenodd" d="M61.5999 19.7632L62.1757 17.2782C62.378 17.3303 62.6762 17.4191 62.9122 17.4191C63.9803 17.4191 64.5429 16.8271 64.8256 15.9744L64.9887 15.4006L60.7697 4.67896H64.0254L65.5885 9.41369C65.905 10.4105 66.1642 11.4542 66.4519 12.5319H66.5401C66.7838 11.4907 67.0275 10.4471 67.2998 9.41369L68.6269 4.67896H71.7296L67.9334 15.8019C66.896 18.5579 65.7289 19.985 63.1587 19.985C62.4791 19.985 62.046 19.8964 61.5999 19.7632Z" fill="white"/>
<path fill-rule="evenodd" clip-rule="evenodd" d="M8.76127 2.39441C3.92259 2.39441 -3.05176e-05 6.33549 -3.05176e-05 11.1972C-3.05176e-05 16.0588 3.92259 20.0001 8.76127 20.0001C13.6001 20.0001 17.5226 16.0588 17.5226 11.1972C17.5226 6.33549 13.6001 2.39441 8.76127 2.39441ZM8.76128 4.50701C12.4329 4.50701 15.4199 7.50822 15.4199 11.1972C15.4199 14.8861 12.4329 17.8873 8.76128 17.8873C5.08982 17.8873 2.10263 14.8861 2.10263 11.1972C2.10263 7.50822 5.08982 4.50701 8.76128 4.50701Z" fill="white"/>
<path fill-rule="evenodd" clip-rule="evenodd" d="M11.1839 0C6.34518 0 2.42256 3.94108 2.42256 8.80282C2.42256 13.6644 6.34518 17.6056 11.1839 17.6056C16.0227 17.6056 19.9452 13.6644 19.9452 8.80282C19.9452 3.94108 16.0227 0 11.1839 0ZM11.7182 2.1126C15.3898 2.1126 18.3769 5.11381 18.3769 8.8028C18.3769 12.4917 15.3898 15.4929 11.7182 15.4929C8.04678 15.4929 5.0596 12.4917 5.0596 8.8028C5.0596 5.11381 8.04678 2.1126 11.7182 2.1126Z" fill="white"/>
<path fill-rule="evenodd" clip-rule="evenodd" d="M5.73712 1.89014L2.40312 5.1496L5.12432 4.10383L5.73712 1.89014Z" fill="white"/>
<path fill-rule="evenodd" clip-rule="evenodd" d="M14.5569 17.8635L17.7563 14.4706L15.0796 15.6266L14.5569 17.8635Z" fill="white"/>
</svg>
